<svg width="48" height="48" viewBox="0 0 48 48" fill="none" xmlns="http://www.w3.org/2000/svg">
<path fill-rule="evenodd" clip-rule="evenodd" d="M33.7774 36.6368C33.4334 35.7708 32.9454 35.0148 32.5174 34.3688C32.3014 34.0448 32.0794 33.7148 31.8854 33.3748C31.1074 32.0228 31.3754 31.4748 32.6374 29.3608L32.8414 29.0148C33.8634 27.2928 33.9194 25.6408 33.9714 24.1848C33.9954 23.4688 34.0194 22.7948 34.1574 22.1608C34.4794 20.6968 37.5734 20.3068 39.4914 20.0768C39.8134 21.3348 39.9994 22.6448 39.9994 24.0008C39.9994 29.1388 37.5554 33.7068 33.7774 36.6368M9.92339 31.5988C11.1954 31.9228 12.5734 32.1468 13.9754 32.1468C16.1354 32.1468 18.3414 31.6188 20.2494 30.1248C23.6814 27.4408 23.6814 24.0088 23.6814 21.2488C23.6814 19.4648 23.6814 17.9268 24.4254 16.5608C24.8254 15.8288 25.6774 15.3208 26.6634 14.7308C27.2674 14.3688 27.8934 13.9968 28.4934 13.5248C29.7794 12.5188 30.7354 11.2248 31.3274 9.79279C34.1274 11.2428 36.4474 13.4888 37.9794 16.2388C35.1234 16.6348 31.0694 17.5708 30.2514 21.3048C30.0354 22.2928 30.0014 23.2228 29.9754 24.0448C29.9334 25.2108 29.9014 26.1328 29.4014 26.9768L29.2014 27.3128C27.9074 29.4788 26.4434 31.9348 28.4174 35.3688C28.6554 35.7848 28.9214 36.1848 29.1834 36.5828C29.8714 37.6148 30.2094 38.1848 30.2114 38.7448C28.3014 39.5528 26.2014 40.0008 23.9994 40.0008C17.9254 40.0008 12.6334 36.5968 9.92339 31.5988M23.9994 8.00079C25.2314 8.00079 26.4214 8.15279 27.5734 8.41679C27.2354 9.16079 26.7134 9.83879 26.0254 10.3768C25.5894 10.7208 25.0994 11.0068 24.6134 11.2968C23.3114 12.0728 21.8374 12.9528 20.9134 14.6448C19.6814 16.9048 19.6814 19.2128 19.6814 21.2488C19.6814 23.9588 19.5934 25.5608 17.7854 26.9748C15.0474 29.1208 10.8574 27.9228 8.26539 26.8328C8.10139 25.9108 7.99939 24.9668 7.99939 24.0008C7.99939 15.1788 15.1774 8.00079 23.9994 8.00079M23.9994 4.00079C12.9714 4.00079 3.99939 12.9728 3.99939 24.0008C3.99939 35.0268 12.9714 44.0008 23.9994 44.0008C35.0274 44.0008 43.9994 35.0268 43.9994 24.0008C43.9994 12.9728 35.0274 4.00079 23.9994 4.00079" fill="#231F20"/>
<mask id="mask0" mask-type="alpha" maskUnits="userSpaceOnUse" x="3" y="4" width="41" height="41">
<path fill-rule="evenodd" clip-rule="evenodd" d="M33.7774 36.6368C33.4334 35.7708 32.9454 35.0148 32.5174 34.3688C32.3014 34.0448 32.0794 33.7148 31.8854 33.3748C31.1074 32.0228 31.3754 31.4748 32.6374 29.3608L32.8414 29.0148C33.8634 27.2928 33.9194 25.6408 33.9714 24.1848C33.9954 23.4688 34.0194 22.7948 34.1574 22.1608C34.4794 20.6968 37.5734 20.3068 39.4914 20.0768C39.8134 21.3348 39.9994 22.6448 39.9994 24.0008C39.9994 29.1388 37.5554 33.7068 33.7774 36.6368M9.92339 31.5988C11.1954 31.9228 12.5734 32.1468 13.9754 32.1468C16.1354 32.1468 18.3414 31.6188 20.2494 30.1248C23.6814 27.4408 23.6814 24.0088 23.6814 21.2488C23.6814 19.4648 23.6814 17.9268 24.4254 16.5608C24.8254 15.8288 25.6774 15.3208 26.6634 14.7308C27.2674 14.3688 27.8934 13.9968 28.4934 13.5248C29.7794 12.5188 30.7354 11.2248 31.3274 9.79279C34.1274 11.2428 36.4474 13.4888 37.9794 16.2388C35.1234 16.6348 31.0694 17.5708 30.2514 21.3048C30.0354 22.2928 30.0014 23.2228 29.9754 24.0448C29.9334 25.2108 29.9014 26.1328 29.4014 26.9768L29.2014 27.3128C27.9074 29.4788 26.4434 31.9348 28.4174 35.3688C28.6554 35.7848 28.9214 36.1848 29.1834 36.5828C29.8714 37.6148 30.2094 38.1848 30.2114 38.7448C28.3014 39.5528 26.2014 40.0008 23.9994 40.0008C17.9254 40.0008 12.6334 36.5968 9.92339 31.5988M23.9994 8.00079C25.2314 8.00079 26.4214 8.15279 27.5734 8.41679C27.2354 9.16079 26.7134 9.83879 26.0254 10.3768C25.5894 10.7208 25.0994 11.0068 24.6134 11.2968C23.3114 12.0728 21.8374 12.9528 20.9134 14.6448C19.6814 16.9048 19.6814 19.2128 19.6814 21.2488C19.6814 23.9588 19.5934 25.5608 17.7854 26.9748C15.0474 29.1208 10.8574 27.9228 8.26539 26.8328C8.10139 25.9108 7.99939 24.9668 7.99939 24.0008C7.99939 15.1788 15.1774 8.00079 23.9994 8.00079M23.9994 4.00079C12.9714 4.00079 3.99939 12.9728 3.99939 24.0008C3.99939 35.0268 12.9714 44.0008 23.9994 44.0008C35.0274 44.0008 43.9994 35.0268 43.9994 24.0008C43.9994 12.9728 35.0274 4.00079 23.9994 4.00079" fill="white"/>
</mask>
<g mask="url(#mask0)">
<rect width="48" height="48" fill="#5850EC"/>
</g>
</svg>
