<svg version="1.1" id="Layer_1" xmlns="http://www.w3.org/2000/svg" xmlns:xlink="http://www.w3.org/1999/xlink" x="0px" y="0px"
     viewBox="0 0 960 980" style="enable-background:new 0 0 960 980;" xml:space="preserve">
<style type="text/css">
	.st0{fill:#BA0C2F;}
</style>
  <g transform="translate(0.000000,980.000000) scale(0.100000,-0.100000)">
	<path class="st0" d="M4525,9054c-752-70-1369-283-1965-679c-251-166-432-318-665-556C1267,7176,882,6372,763,5455
		c-26-201-26-788,0-990c103-796,404-1500,904-2114c123-151,445-469,601-593c390-311,821-545,1283-696c258-85,479-134,834-184
		c123-18,775-18,905,0c440,59,768,143,1109,284c523,216,933,490,1337,893c257,256,420,460,592,737c61,98,222,391,222,402
		c0,3,15,37,34,78c156,338,272,748,327,1153c26,192,37,664,20,870c-68,824-372,1590-887,2235c-118,147-426,462-569,581
		c-613,510-1323,818-2140,926C5231,9050,4625,9063,4525,9054z M5157,8989c592-48,1173-225,1676-510c151-86,393-250,537-365
		c173-138,486-451,624-624c115-144,279-386,365-537c539-952,668-2113,350-3163c-82-274-214-582-350-823c-86-151-250-393-365-537
		c-138-173-451-486-624-624c-144-115-386-279-537-365c-952-539-2113-668-3163-350c-274,82-582,214-823,350c-151,86-393,250-537,365
		c-173,138-486,451-624,624c-115,144-279,386-365,537c-539,952-668,2113-350,3163c82,274,214,582,350,823c86,151,250,393,365,537
		c138,173,451,486,624,624c144,115,386,279,537,365c495,280,1084,461,1658,510C4652,9001,5010,9002,5157,8989z"/>
    <path class="st0" d="M4611,8890c-79-5-200-16-270-25c-138-17-473-82-481-93c-3-4-4-341-2-749l3-743h172c95,0,331,3,526,7l353,6
		l589,696c324,383,589,699,589,702c0,21-461,133-670,163C5177,8889,4852,8904,4611,8890z"/>
    <path class="st0" d="M3535,8676c-200-71-347-136-341-152c3-8,108-148,233-311l228-296l3,201c1,111,1,292,0,401l-3,199L3535,8676z"
    />
    <path class="st0" d="M5736,7963c-417-493-552-659-539-662c33-7,2758,32,2767,40c24,21-325,402-544,593c-282,246-637,472-982,625
		c-76,34-139,61-142,61C6294,8620,6042,8324,5736,7963z"/>
    <path class="st0" d="M2897,8385c-447-252-866-618-1186-1035l-73-95l138-3c77-2,459,1,849,7c391,6,785,11,878,11h167v149
		c0,139-1,150-23,182c-43,63-637,834-645,837C2998,8439,2951,8415,2897,8385z"/>
    <path class="st0" d="M6530,6919c-641-10-1216-19-1278-21l-112-3l787-660c434-363,910-763,1060-888l272-228l723,287
		c398,158,724,288,725,288c1,1-11,60-26,131c-75,340-200,676-364,983l-71,132l-276-1C7819,6938,7171,6929,6530,6919z"/>
    <path class="st0" d="M4048,6883l-178-3v-613c0-336,3-823,7-1082l6-470l238,3l237,3l182-305l182-305l46,18c26,11,542,216,1147,456
		c605,241,1108,440,1118,444c15,6-219,206-1087,934l-1106,927l-308-2C4363,6887,4145,6884,4048,6883z"/>
    <path class="st0" d="M2460,6860c-591-10-1076-18-1077-19c-10-7-94-174-141-281c-120-271-199-521-257-804c-37-184-69-408-63-451
		c3-25,35-40,578-266c316-131,581-240,588-241c7-2,365,308,797,687l784,690l1,353v352l-67-2C3565,6878,3051,6869,2460,6860z"/>
    <path class="st0" d="M2982,5309l-683-602l413-172c356-149,415-171,425-158c6,8,51,86,100,174l88,159h178h177l-1,583
		c0,320-4,590-7,600C3666,5907,3535,5796,2982,5309z"/>
    <path class="st0" d="M8080,5235c-349-140-638-255-642-257c-7-3,735-631,767-650c7-5,121,68,286,181l274,188l7,109
		c8,118,3,329-13,519c-12,139-17,165-33,164C8720,5489,8429,5374,8080,5235z"/>
    <path class="st0" d="M904,5045c-9-37,12-444,31-590c29-218,107-579,125-573c5,2,202,174,439,383c278,244,427,382,419,386
		c-10,5-944,396-995,416C916,5070,908,5060,904,5045z"/>
    <path class="st0" d="M6040,4424c-641-255-1173-467-1182-471c-12-5,298-111,943-321l961-313l634,436c348,240,636,440,639,444
		c6,10-804,691-820,690C7210,4889,6681,4679,6040,4424z"/>
    <path class="st0" d="M1654,4139c-263-231-492-433-507-448l-28-27l22-55c20-51,44-74,387-379c201-179,371-326,377-328
		c7-2,264,103,571,234c308,130,567,239,576,243c14,5-3,39-107,215l-124,209l16,31c9,17,56,102,105,190c49,87,86,162,81,166
		c-6,5-815,343-874,365C2138,4559,1987,4432,1654,4139z"/>
    <path class="st0" d="M3494,4553l-81-4l-83-152c-45-84-97-177-115-207s-74-129-124-219l-92-163l218-367l219-366l414,3
		c228,2,422,5,430,8c16,5,420,721,420,744c0,8-96,175-212,371l-213,358l-350-1C3733,4557,3539,4554,3494,4553z"/>
    <path class="st0" d="M8553,4314l-181-126l36-32c147-129,236-197,243-184c16,30,99,469,88,468C8737,4439,8653,4383,8553,4314z"/>
    <path class="st0" d="M7598,3657c-328-227-595-413-594-415c5-4,1130-370,1151-374c47-8,279,444,396,772l38,108l-190,158
		c-104,88-192,160-197,161C8198,4068,7926,3883,7598,3657z"/>
    <path class="st0" d="M4610,3337l-225-402l-215-3c-118-1-218-6-222-10c-7-7-42-1459-36-1525l3-36l1313,904
		c722,496,1313,907,1313,911c0,6-1689,564-1705,564C4835,3740,4734,3559,4610,3337z"/>
    <path class="st0" d="M2635,2989c-286-122-530-225-543-230c-21-8,51-75,795-737c450-401,819-728,820-728c3,2,33,1407,33,1529v97
		h-197h-198l-85,145c-47,80-89,145-95,145C3160,3210,2921,3110,2635,2989z"/>
    <path class="st0" d="M1406,3033c62-113,165-273,175-273c17,0,119,45,116,52c-3,9-315,288-323,288C1371,3100,1385,3070,1406,3033z"
    />
    <path class="st0" d="M5359,2117c-803-553-1422-985-1415-989c18-10,261-56,391-72c307-40,700-40,1010-1c1041,133,1996,687,2634,1528
		c44,58,71,101,65,106c-9,9-1236,411-1251,410C6789,3099,6143,2657,5359,2117z"/>
    <path class="st0" d="M1778,2627c-43-18-78-35-78-39c0-7,115-153,173-218c81-92,295-304,387-384c314-274,755-544,1105-677l50-19
		l-26,22c-15,13-360,320-768,683s-747,661-754,662C1861,2658,1820,2645,1778,2627z"/>
</g>
</svg>

