<svg width="38" height="26" viewBox="0 0 38 26" fill="none" xmlns="http://www.w3.org/2000/svg">
<path d="M37.4644 6.87439V1H18.6472V2.36114C20.677 3.6984 22.062 5.99084 22.062 8.59372C22.062 10.2414 21.5128 11.7458 20.6292 12.9876C21.656 14.2532 22.3247 15.877 22.3247 17.668C22.3247 20.3664 20.8441 22.7305 18.6711 24.02V24.9513H37.4644V19.1008H24.4977V15.9009H34.6466V10.0743H24.4977V6.87439H37.4644Z" stroke="black" stroke-width="0.953954" stroke-miterlimit="10"/>
<path d="M20.4858 12.8931C21.5126 14.1587 22.1812 15.7825 22.1812 17.5735C22.1812 21.6569 18.8142 25 14.7308 25H1V1.0249H14.4681C18.5515 1.0249 21.9186 4.39193 21.9186 8.47535C21.9186 10.1469 21.3693 11.6513 20.4858 12.8931ZM6.82663 10.0992H14.4681C15.3278 10.0992 16.0442 9.38277 16.0442 8.47535C16.0442 7.61568 15.3278 6.89929 14.4681 6.89929H6.82663V10.0992ZM16.283 17.5735C16.283 16.6899 15.5188 15.9497 14.6353 15.9497H6.82663V19.1495H14.7069C15.5666 19.1495 16.283 18.4331 16.283 17.5735Z" fill="black"/>
<path d="M20.4858 12.8931C21.5126 14.1587 22.1812 15.7825 22.1812 17.5735C22.1812 21.6569 18.8142 25 14.7308 25H1V1.0249H14.4681C18.5515 1.0249 21.9186 4.39193 21.9186 8.47535C21.9186 10.1469 21.3693 11.6513 20.4858 12.8931ZM6.82663 10.0992H14.4681C15.3278 10.0992 16.0442 9.38277 16.0442 8.47535C16.0442 7.61568 15.3278 6.89929 14.4681 6.89929H6.82663V10.0992V10.0992ZM16.283 17.5735C16.283 16.6899 15.5188 15.9497 14.6353 15.9497H6.82663V19.1495H14.7069C15.5666 19.1495 16.283 18.4331 16.283 17.5735Z" stroke="black" stroke-width="0.476768" stroke-miterlimit="10"/>
</svg>
