<?xml version="1.0" standalone="no"?>
<!DOCTYPE svg PUBLIC "-//W3C//DTD SVG 20010904//EN"
 "http://www.w3.org/TR/2001/REC-SVG-20010904/DTD/svg10.dtd">
<svg version="1.0" xmlns="http://www.w3.org/2000/svg"
 width="891.000000pt" height="891.000000pt" viewBox="0 0 891.000000 891.000000"
 preserveAspectRatio="xMidYMid meet">
<metadata>
Created by potrace 1.11, written by Peter Selinger 2001-2013
</metadata>
<g transform="translate(0.000000,891.000000) scale(0.100000,-0.100000)"
fill="#000000" stroke="none">
<path d="M4289 7386 c0 -6 -1 -75 -1 -153 0 -79 -3 -143 -5 -143 -3 0 -35 17
-71 39 -153 88 -356 168 -521 202 -98 21 -122 25 -231 37 -36 4 -823 7 -1750
7 l-1685 0 -3 -2925 -2 -2925 1747 1 c962 1 1768 4 1793 8 180 27 236 39 370
81 116 36 298 119 348 158 15 12 14 16 13 -135 l-1 -118 2310 0 2310 0 0 740
c0 698 -1 740 -17 741 -10 0 -717 0 -1570 0 l-1553 1 0 358 0 358 1226 0 c674
0 1228 2 1231 5 6 7 6 1453 0 1464 -3 4 -557 8 -1231 8 l-1226 -1 0 357 0 358
1548 0 c851 0 1557 0 1570 1 l22 0 0 743 0 743 -2310 0 c-1608 0 -2310 -3
-2311 -10z m-839 -1503 c149 -72 228 -201 218 -358 -9 -140 -90 -258 -217
-319 l-66 -31 -960 -1 -960 -2 0 373 0 373 960 -2 960 -1 65 -32z m1 -2179
c126 -37 227 -138 263 -262 24 -84 14 -189 -25 -263 -52 -96 -148 -172 -249
-195 -19 -4 -472 -8 -1005 -8 l-970 -1 0 372 0 373 966 0 c859 0 971 -2 1020
-16z"/>
</g>
</svg>
