<svg width="39" height="56" viewBox="0 0 39 56" fill="none" xmlns="http://www.w3.org/2000/svg">
<path fill-rule="evenodd" clip-rule="evenodd" d="M0 19.92C0 8.93908 8.6868 0 19.3578 0C30.0287 0 38.7155 8.93908 38.7155 19.92C38.7155 33.7892 21.8743 53.1365 21.1484 53.9582L19.3578 56L17.5672 53.9582C16.8413 53.1365 0 33.7892 0 19.92ZM4.83944 19.92C4.83944 28.7346 14.0828 41.9813 19.3578 48.4802C23.5923 43.2263 33.8761 29.4567 33.8761 19.92C33.8761 11.6781 27.367 4.97999 19.3578 4.97999C11.3485 4.97999 4.83944 11.6781 4.83944 19.92ZM19.3578 19.92C21.3661 19.92 22.9873 18.2517 22.9873 16.185C22.9873 14.1183 21.3661 12.45 19.3578 12.45C17.3494 12.45 15.7282 14.1432 15.7282 16.185C15.7282 18.2517 17.3494 19.92 19.3578 19.92ZM12.0986 26.1449C12.0986 23.6549 16.938 22.4099 19.3578 22.4099C21.7775 22.4099 26.6169 23.6549 26.6169 26.1449V26.4437C24.8505 28.5353 22.2614 29.8799 19.3578 29.8799C16.4541 29.8799 13.865 28.5353 12.0986 26.4437V26.1449Z"/>
</svg>
