<svg width="56" height="56" viewBox="0 0 56 56" fill="none" xmlns="http://www.w3.org/2000/svg">
<path fill-rule="evenodd" clip-rule="evenodd" d="M36.1437 22.47C35.7237 15.96 33.087 9.61335 28.1403 4.66669C23.147 9.66002 20.3937 16.0067 19.857 22.47C22.8437 24.0567 25.597 26.11 28.0003 28.6067C30.4037 26.1334 33.157 24.08 36.1437 22.47ZM28.1171 12.11C29.5871 14.5134 30.6137 17.1967 31.1504 19.9967C30.0537 20.6967 29.0271 21.4667 28.0237 22.2834C27.0437 21.49 25.9937 20.72 24.9204 20.02C25.5037 17.22 26.5771 14.5367 28.1171 12.11ZM20.8603 28.5834C23.6603 30.59 26.087 33.1334 28.0003 36.05C33.017 28.3967 41.5803 23.3334 51.3337 23.3334C51.3337 35.7467 43.4937 46.2467 32.597 50.1434C31.1037 50.6567 29.587 51.0534 28.0003 51.3334C26.4137 51.0767 24.8737 50.68 23.4037 50.1434C12.507 46.2467 4.66699 35.7467 4.66699 23.3334C10.7103 23.3334 16.287 25.27 20.837 28.56C20.7155 28.479 20.5852 28.398 20.4519 28.3151L20.4518 28.3151L20.4518 28.3151C20.2779 28.2069 20.0987 28.0956 19.927 27.9767C20.1031 28.1121 20.287 28.224 20.4697 28.3351C20.6017 28.4153 20.7331 28.4952 20.8603 28.5834ZM31.0803 45.7334C30.0537 46.0834 29.027 46.3634 27.977 46.5967C26.9503 46.3867 25.947 46.1067 24.9903 45.7567C17.3137 43.0034 11.6903 36.4467 9.94034 28.6067C12.507 29.2134 14.957 30.2634 17.2203 31.71L17.1737 31.7334C17.477 31.9434 17.7803 32.1534 18.0837 32.3167L18.247 32.41C20.557 34.09 22.5403 36.1667 24.1037 38.5934L28.0003 44.5667L31.897 38.6167C33.507 36.1667 35.5137 34.0667 37.8003 32.41L37.9637 32.2934C38.1737 32.1767 38.3836 32.0367 38.5936 31.8967L38.5937 31.8967L38.5703 31.85C40.857 30.3334 43.4003 29.2134 46.0603 28.5834C44.3103 36.4467 38.7103 43.0034 31.0803 45.7334ZM20.8836 28.5829C20.9086 28.6067 20.9427 28.6363 20.9769 28.6534C20.9302 28.63 20.9069 28.6067 20.8836 28.5834C20.8836 28.5832 20.8836 28.583 20.8836 28.5829ZM20.8602 28.56C20.8602 28.56 20.8833 28.56 20.8836 28.5829C20.8744 28.5742 20.8665 28.5663 20.8602 28.56Z" />
</svg>
