<svg width="34" height="36" viewBox="0 0 34 36" fill="none" xmlns="http://www.w3.org/2000/svg">
<path fill-rule="evenodd" clip-rule="evenodd" d="M6.77179 16.2721L16.1676 0.897095L25.5635 16.2721H6.77179ZM19.4648 12.8555L16.1677 7.45715L12.8536 12.8555H19.4648ZM25.7649 19.6888C21.5111 19.6888 18.0774 23.1225 18.0774 27.3763C18.0774 31.63 21.5111 35.0638 25.7649 35.0638C30.0186 35.0638 33.4524 31.63 33.4524 27.3763C33.4524 23.1225 30.0186 19.6888 25.7649 19.6888ZM21.4941 27.3763C21.4941 29.7338 23.4075 31.6471 25.765 31.6471C28.1225 31.6471 30.0358 29.7338 30.0358 27.3763C30.0358 25.0188 28.1225 23.1055 25.765 23.1055C23.4075 23.1055 21.4941 25.0188 21.4941 27.3763ZM0.361816 34.2096H14.0285V20.543H0.361816V34.2096ZM10.6117 23.9596H3.77832V30.7929H10.6117V23.9596Z" fill="white"/>
</svg>
