<svg width="40" height="40" viewBox="0 0 40 40" fill="none" xmlns="http://www.w3.org/2000/svg">
<path fill-rule="evenodd" clip-rule="evenodd" d="M10.0001 18.3334L19.1667 3.33337L28.3334 18.3334H10.0001ZM22.3834 15L19.1667 9.73337L15.9334 15H22.3834ZM28.3334 21.6667C24.1834 21.6667 20.8334 25.0167 20.8334 29.1667C20.8334 33.3167 24.1834 36.6667 28.3334 36.6667C32.4834 36.6667 35.8334 33.3167 35.8334 29.1667C35.8334 25.0167 32.4834 21.6667 28.3334 21.6667ZM24.1667 29.1667C24.1667 31.4667 26.0334 33.3334 28.3334 33.3334C30.6334 33.3334 32.5001 31.4667 32.5001 29.1667C32.5001 26.8667 30.6334 25 28.3334 25C26.0334 25 24.1667 26.8667 24.1667 29.1667ZM4.16675 35.8334H17.5001V22.5H4.16675V35.8334ZM14.1667 25.8334H7.50008V32.5H14.1667V25.8334Z" fill="white"/>
</svg>
