<svg width="56" height="56" viewBox="0 0 56 56" fill="none" xmlns="http://www.w3.org/2000/svg">
<path fill-rule="evenodd" clip-rule="evenodd" d="M13.9999 25.6666L26.8333 4.66663L39.6666 25.6666H13.9999ZM31.3366 21L26.8332 13.6266L22.3066 21H31.3366ZM39.6666 30.3333C33.8566 30.3333 29.1666 35.0233 29.1666 40.8333C29.1666 46.6433 33.8566 51.3333 39.6666 51.3333C45.4766 51.3333 50.1666 46.6433 50.1666 40.8333C50.1666 35.0233 45.4766 30.3333 39.6666 30.3333ZM33.8333 40.8333C33.8333 44.0533 36.4466 46.6666 39.6666 46.6666C42.8866 46.6666 45.4999 44.0533 45.4999 40.8333C45.4999 37.6133 42.8866 35 39.6666 35C36.4466 35 33.8333 37.6133 33.8333 40.8333ZM5.83325 50.1666H24.4999V31.5H5.83325V50.1666ZM19.8333 36.1666H10.4999V45.5H19.8333V36.1666Z" fill="white"/>
</svg>
