<svg width="16" height="16" viewBox="0 0 16 16" fill="none" xmlns="http://www.w3.org/2000/svg">
<path fill-rule="evenodd" clip-rule="evenodd" d="M8.00001 1.3335C4.32001 1.3335 1.33334 4.32016 1.33334 8.00016C1.33334 11.6802 4.32001 14.6668 8.00001 14.6668C11.68 14.6668 14.6667 11.6802 14.6667 8.00016C14.6667 4.32016 11.68 1.3335 8.00001 1.3335ZM8.00001 13.3335C5.06001 13.3335 2.66668 10.9402 2.66668 8.00016C2.66668 5.06016 5.06001 2.66683 8.00001 2.66683C10.94 2.66683 13.3333 5.06016 13.3333 8.00016C13.3333 10.9402 10.94 13.3335 8.00001 13.3335ZM6.64667 6.3135C6.64667 6.80016 7.02667 7.12683 8.20667 7.42683C9.38001 7.7335 10.64 8.24016 10.6467 9.70683C10.64 10.7802 9.84001 11.3602 8.82667 11.5535V12.6668H7.26667V11.5335C6.26667 11.3268 5.42667 10.6868 5.36001 9.5535H6.50667C6.56667 10.1668 6.98667 10.6468 8.05334 10.6468C9.19334 10.6468 9.45334 10.0735 9.45334 9.72016C9.45334 9.24016 9.19334 8.78016 7.89334 8.4735C6.44667 8.12683 5.45334 7.52683 5.45334 6.3335C5.45334 5.32683 6.26001 4.6735 7.26667 4.46016V3.3335H8.82001V4.4735C9.90001 4.74016 10.4467 5.56016 10.48 6.4535H9.34001C9.31334 5.80016 8.96667 5.36016 8.04667 5.36016C7.17334 5.36016 6.64667 5.7535 6.64667 6.3135Z" fill="white"/>
</svg>
