<svg width="16" height="16" viewBox="0 0 16 16" fill="none" xmlns="http://www.w3.org/2000/svg">
<path fill-rule="evenodd" clip-rule="evenodd" d="M14.6667 5.6665C14.6667 4.9265 14.0733 4.33317 13.3333 4.33317H10.6667V2.99984C10.6667 2.25984 10.0733 1.6665 9.33334 1.6665H6.66668C5.92668 1.6665 5.33334 2.25984 5.33334 2.99984V4.33317H2.66668C1.92668 4.33317 1.34001 4.9265 1.34001 5.6665L1.33334 12.9998C1.33334 13.7398 1.92668 14.3332 2.66668 14.3332H13.3333C14.0733 14.3332 14.6667 13.7398 14.6667 12.9998V5.6665ZM9.33334 4.33317V2.99984H6.66668V4.33317H9.33334ZM2.66668 5.6665V12.9998H13.3333V5.6665H2.66668Z" fill="white"/>
</svg>
