<svg version="1.0" xmlns="http://www.w3.org/2000/svg" width="24" height="24" viewBox="0 0 160.000000 164.000000" preserveAspectRatio="xMidYMid meet">
  <g transform="translate(0.000000,164.000000) scale(0.100000,-0.100000)" fill="#4A5568" stroke="none">
    <path d="M295 1433 c-32 -9 -65 -34 -81 -64 -12 -23 -14 -109 -14 -514 l0 -485 34 -38 34 -37 392 -3 392 -3 -6 28 c-4 15 -9 36 -13 47 -8 28 7 16 134 -103 62 -58 119 -109 128 -113 13 -8 15 55 15 593 0 586 -1 602 -20 634 -39 64 -50 65 -538 64 -240 -1 -446 -4 -457 -6z m682 -341 c45 -21 55 -32 77 -81 33 -74 66 -212 66 -277 0 -42 -4 -54 -27 -76 -33 -31 -77 -53 -119 -61 -24 -5 -36 -1 -52 16 l-21 22 45 24 c25 14 50 33 56 44 5 11 6 17 1 15 -64 -31 -114 -50 -152 -59 -81 -19 -195 1 -324 56 -34 14 -7 -21 38 -50 39 -24 43 -30 34 -47 -9 -18 -18 -20 -57 -14 -52 7 -127 47 -142 76 -21 40 23 257 71 351 13 26 34 44 71 63 28 14 59 26 67 26 9 -1 -10 -14 -41 -30 -55 -29 -94 -62 -52 -46 110 45 132 49 239 49 96 1 119 -3 178 -26 37 -14 67 -22 67 -17 0 5 -33 25 -72 45 -56 27 -65 33 -38 29 19 -4 58 -18 87 -32z"/>
    <path d="M586 868 c-9 -12 -16 -35 -16 -51 0 -33 40 -77 70 -77 31 0 70 44 70 80 0 63 -89 98 -124 48z"/>
    <path d="M834 882 c-16 -11 -34 -48 -34 -72 0 -27 43 -70 70 -70 12 0 32 11 45 25 47 46 23 125 -38 125 -18 0 -37 -4 -43 -8z"/>
  </g>
</svg>
