<svg width="264" height="140" viewBox="0 0 264 140" fill="none" xmlns="http://www.w3.org/2000/svg">
<g clip-path="url(#clip0)">
<path fill-rule="evenodd" clip-rule="evenodd" d="M208.599 69.7361C213.105 63.7962 215.573 56.3397 214.998 48.3654C206.948 48.9461 199.822 52.3715 194.525 57.5556C195.919 61.1604 196.763 64.994 196.972 68.949C200.899 68.609 204.814 68.8937 208.599 69.7361ZM209.411 54.7803C208.884 57.9566 207.764 61.0433 206.134 63.8643C204.663 63.6491 203.199 63.5467 201.722 63.502C201.468 62.0835 201.137 60.6328 200.733 59.2252C203.331 57.2418 206.265 55.7256 209.411 54.7803ZM190.82 63.5889C191.739 67.4171 191.933 71.4298 191.406 75.3813C201.465 72.5194 212.652 74.5481 221.08 81.8425C211.796 92.5698 197.169 95.7802 184.838 90.9981C183.163 90.3249 181.556 89.5334 179.975 88.5887C178.796 87.1803 177.762 85.6857 176.893 84.1226C170.391 72.6058 171.468 57.6685 180.752 46.9413C185.975 51.461 189.345 57.3053 190.817 63.5513C190.772 63.3904 190.72 63.223 190.667 63.0517L190.667 63.0516L190.667 63.0516C190.598 62.828 190.526 62.5977 190.467 62.3666C190.518 62.6153 190.593 62.8496 190.668 63.0822C190.722 63.2503 190.775 63.4176 190.82 63.5889ZM186.825 86.0528C185.676 85.5875 184.58 85.0616 183.498 84.478C182.768 83.5287 182.11 82.5363 181.545 81.5184C176.97 73.3978 177.014 63.5261 181.365 55.4422C183.13 57.886 184.462 60.6257 185.336 63.5686L185.278 63.5539C185.383 63.9622 185.488 64.3705 185.628 64.7385L185.699 64.9414C186.439 68.1208 186.6 71.3987 186.136 74.6649L185.036 82.7412L192.853 80.5136C196.077 79.6005 199.382 79.2864 202.597 79.565L202.825 79.5863C203.094 79.6425 203.38 79.6786 203.666 79.7147L203.681 79.6569C206.791 80.0564 209.827 80.9906 212.597 82.4356C205.204 87.9221 195.461 89.4 186.825 86.0528ZM190.84 63.6059C190.844 63.6452 190.851 63.6963 190.868 63.7366C190.845 63.6815 190.842 63.6439 190.84 63.6063C190.84 63.6062 190.84 63.606 190.84 63.6059ZM190.837 63.5687C190.837 63.5687 190.857 63.5859 190.84 63.6059C190.839 63.5915 190.838 63.5788 190.837 63.5687Z" fill="#E5E7EB"/>
<path fill-rule="evenodd" clip-rule="evenodd" d="M141.287 12.1839L104.514 18.6281C101.625 19.1345 99.7014 21.9081 100.208 24.7974L106.626 61.575C107.132 64.4643 109.91 66.414 112.8 65.9076L149.572 59.4634C152.462 58.9571 154.412 56.1788 153.905 53.2895L147.461 16.5166C146.955 13.6273 144.176 11.6776 141.287 12.1839ZM148.652 54.2101L111.879 60.6544L105.435 23.8814L142.208 17.4372L148.652 54.2101ZM133.285 51.4885L125.405 52.8694L123.794 43.6762L114.601 45.2873L113.22 37.4073L122.413 35.7963L120.802 26.603L128.682 25.2221L130.293 34.4154L139.486 32.8043L140.867 40.6842L131.674 42.2953L133.285 51.4885Z" fill="#E5E7EB"/>
<path fill-rule="evenodd" clip-rule="evenodd" d="M42.7175 87.2015C34.0532 79.0358 33.4262 65.5699 41.3202 57.1939C49.2142 48.8179 62.6936 48.6467 71.3579 56.8124C82.3012 67.126 85.1082 94.7325 85.2196 95.9133L85.506 98.8371L82.5703 98.7243C81.385 98.683 53.6608 97.5151 42.7175 87.2015ZM46.2976 83.4029C53.2526 89.9577 70.5426 92.553 79.5727 93.2453C78.5597 86.0145 75.3026 67.7029 67.7778 60.6112C61.2747 54.4822 51.1746 54.6105 45.2496 60.8972C39.3246 67.1839 39.7944 77.274 46.2976 83.4029ZM57.0376 72.007C58.5233 70.4306 58.4063 67.9175 56.7756 66.3806C55.1449 64.8438 52.6293 64.8757 51.1436 66.4521C49.6578 68.0286 49.7945 70.5602 51.4056 72.0786C53.0362 73.6154 55.5519 73.5835 57.0376 72.007ZM56.5794 82.3344C54.6148 80.4828 57.2125 75.7583 59.0025 73.859C60.7925 71.9597 65.3549 69.0869 67.3196 70.9385L67.5554 71.1607C67.899 74.1026 67.0446 77.1348 64.8966 79.4139C62.7485 81.6931 59.7723 82.7255 56.8152 82.5566L56.5794 82.3344Z" fill="#E5E7EB"/>
<path fill-rule="evenodd" clip-rule="evenodd" d="M130.973 83.3323C116.253 83.3323 104.333 95.279 104.333 109.999C104.333 124.719 116.253 136.666 130.973 136.666C145.72 136.666 157.667 124.719 157.667 109.999C157.667 95.279 145.72 83.3323 130.973 83.3323ZM117.667 103.332C117.667 101.123 119.457 99.3323 121.667 99.3323C123.876 99.3323 125.667 101.123 125.667 103.332C125.667 105.541 123.876 107.332 121.667 107.332C119.457 107.332 117.667 105.541 117.667 103.332ZM140.333 99.3323C138.124 99.3323 136.333 101.123 136.333 103.332C136.333 105.541 138.124 107.332 140.333 107.332C142.542 107.332 144.333 105.541 144.333 103.332C144.333 101.123 142.542 99.3323 140.333 99.3323ZM123 115.332H139V119.332H123V115.332ZM109.667 109.999C109.667 121.786 119.213 131.332 131 131.332C142.787 131.332 152.333 121.786 152.333 109.999C152.333 98.2123 142.787 88.6657 131 88.6657C119.213 88.6657 109.667 98.2123 109.667 109.999Z" fill="#E5E7EB"/>
<circle cx="179" cy="27.9995" r="4" fill="#E5E7EB"/>
<circle cx="190.566" cy="116.566" r="4" transform="rotate(8.82384 190.566 116.566)" fill="#E5E7EB"/>
<circle cx="60" cy="26.9995" r="4" fill="#E5E7EB"/>
<circle cx="97" cy="72" r="4" fill="#F4F5F7"/>
<circle cx="155" cy="71.9995" r="4" fill="#F4F5F7"/>
<circle cx="81.8662" cy="114.866" r="4" transform="rotate(14.339 81.8662 114.866)" fill="#F4F5F7"/>
<circle cx="32.8662" cy="101.866" r="4" transform="rotate(14.339 32.8662 101.866)" fill="#F4F5F7"/>
<circle cx="236.866" cy="87.8655" r="4" transform="rotate(14.339 236.866 87.8655)" fill="#F4F5F7"/>
</g>
<defs>
<clipPath id="clip0">
<rect width="264" height="140" fill="white"/>
</clipPath>
</defs>
</svg>
