<svg version="1.0" xmlns="http://www.w3.org/2000/svg" width="22" height="22" viewBox="0 0 160.000000 160.000000" preserveAspectRatio="xMidYMid meet">
  <g transform="translate(0.000000,160.000000) scale(0.100000,-0.100000)" fill="#4A5568" stroke="none">
    <path d="M650 1454 c-36 -7 -101 -31 -145 -53 -367 -182 -489 -647 -257 -983 92 -133 270 -252 412 -274 l40 -7 0 237 0 236 -85 0 -85 0 0 95 0 95 84 0 84 0 4 118 c4 94 9 125 26 159 26 50 80 96 131 112 42 12 150 15 200 5 l31 -6 0 -79 0 -79 -66 0 c-59 0 -68 -3 -95 -29 -28 -28 -29 -34 -29 -115 l0 -86 90 0 c65 0 90 -3 90 -12 0 -7 -5 -50 -12 -95 l-11 -83 -79 0 -78 0 0 -235 c0 -267 -8 -248 91 -219 280 82 479 349 479 644 0 257 -144 487 -375 601 -134 66 -296 86 -445 53z"/>
  </g>
</svg>
