<svg width="40" height="40" viewBox="0 0 40 40" fill="none" xmlns="http://www.w3.org/2000/svg">
<path fill-rule="evenodd" clip-rule="evenodd" d="M19.98 0C8.94 0 0 8.96 0 20C0 31.04 8.94 40 19.98 40C31.04 40 40 31.04 40 20C40 8.96 31.04 0 19.98 0ZM34.94 14.32L24.92 13.46L20.92 4.04002C27.34 4.42002 32.74 8.58002 34.94 14.32ZM20 23.96L24.8 26.84L23.52 21.38L27.74 17.72L22.18 17.24L20 12.12L17.82 17.26L12.26 17.74L16.48 21.4L15.22 26.84L20 23.96ZM19.08 4.04002L15.08 13.48L5.04 14.34C7.24 8.58002 12.64 4.40002 19.08 4.04002ZM4.46 16.28C4.16 17.48 4 18.72 4 20C4 24.96 6.26 29.4 9.82 32.34L12.04 22.84L4.46 16.28ZM11.68 33.64L20 28.62L28.32 33.62C25.88 35.12 23.04 36 19.98 36C16.94 36 14.1 35.12 11.68 33.64ZM27.96 22.84L30.18 32.34C33.72 29.4 36 24.96 36 20C36 18.72 35.82 17.46 35.54 16.28L27.96 22.84Z"/>
</svg>
