<svg width="16" height="16" viewBox="0 0 16 16" xmlns="http://www.w3.org/2000/svg">
  <path fill-rule="evenodd" clip-rule="evenodd" d="M7.20409 1.31201V2.60481C6.24574 2.72001 5.37271 3.09121 4.64409 3.64161L3.71199 2.72641C4.68348 1.95201 5.88471 1.44001 7.20409 1.31201ZM3.71856 4.54401L2.77989 3.63521C1.98563 4.58241 1.46051 5.75361 1.32922 7.04001H2.65517C2.77333 6.10561 3.15404 5.25441 3.71856 4.54401ZM1.32922 8.32001H2.65517C2.77333 9.25441 3.15404 10.1056 3.71856 10.8096L2.77989 11.7248C1.98563 10.7776 1.46051 9.60641 1.32922 8.32001ZM3.71199 12.6336C4.68348 13.408 5.89127 13.92 7.20409 14.048V12.7552C6.24574 12.64 5.37271 12.2688 4.64409 11.7184L3.71199 12.6336ZM8.54974 14.048C11.8515 13.7088 14.4246 10.9824 14.4246 7.68001C14.4246 4.37761 11.8515 1.65121 8.54974 1.31201V2.60481C11.1229 2.93761 13.1118 5.08801 13.1118 7.68001C13.1118 10.272 11.1229 12.4224 8.54974 12.7552V14.048Z"/>
</svg>