<svg width="14" height="18" viewBox="0 0 14 18" xmlns="http://www.w3.org/2000/svg">
  <path fill-rule="evenodd" clip-rule="evenodd" d="M7.94091 0.830339C8.13467 0.887937 8.30394 1.00246 8.42411 1.15726C8.54427 1.31205 8.60906 1.49904 8.60905 1.69104V6.20203H12.427C12.6016 6.20196 12.7728 6.24715 12.9221 6.33269C13.0715 6.41823 13.1931 6.54084 13.2738 6.68718C13.3545 6.83352 13.3912 6.99798 13.3799 7.16266C13.3686 7.32734 13.3097 7.48594 13.2097 7.62119L6.52827 16.6432C6.41199 16.8006 6.24558 16.9189 6.05326 16.9808C5.86094 17.0427 5.65274 17.045 5.45896 16.9873C5.26517 16.9297 5.09591 16.8151 4.97579 16.6602C4.85568 16.5053 4.79098 16.3182 4.79111 16.1262V11.6152H0.973173C0.798581 11.6153 0.627311 11.5701 0.478004 11.4846C0.328697 11.399 0.207071 11.2764 0.126364 11.1301C0.0456577 10.9837 0.00896141 10.8193 0.020269 10.6546C0.0315767 10.4899 0.0904551 10.3313 0.190497 10.1961L6.87188 1.17408C6.98834 1.0169 7.15478 0.898917 7.34703 0.837264C7.53927 0.775612 7.74731 0.773502 7.94091 0.831241V0.830339Z"/>
</svg>
