<svg width="16" height="16" viewBox="0 0 16 16" fill="none" xmlns="http://www.w3.org/2000/svg">
<path fill-rule="evenodd" clip-rule="evenodd" d="M10.0687 3.6687C10.2163 3.51588 10.3928 3.39399 10.588 3.31014C10.7832 3.22628 10.9932 3.18214 11.2056 3.1803C11.4181 3.17845 11.6288 3.21894 11.8254 3.29938C12.022 3.37983 12.2007 3.49864 12.3509 3.64887C12.5011 3.7991 12.6199 3.97774 12.7004 4.17437C12.7808 4.37101 12.8213 4.58169 12.8195 4.79414C12.8176 5.00659 12.7735 5.21654 12.6896 5.41175C12.6058 5.60695 12.4839 5.7835 12.3311 5.9311L9.93107 8.3311C9.63103 8.63105 9.22413 8.79956 8.79987 8.79956C8.37561 8.79956 7.96871 8.63105 7.66867 8.3311C7.51779 8.18537 7.31571 8.10474 7.10595 8.10656C6.89619 8.10838 6.69554 8.19252 6.54721 8.34084C6.39889 8.48917 6.31475 8.68982 6.31293 8.89958C6.31111 9.10934 6.39174 9.31142 6.53747 9.4623C7.13756 10.0622 7.95134 10.3992 8.79987 10.3992C9.64839 10.3992 10.4622 10.0622 11.0623 9.4623L13.4623 7.0623C14.0452 6.45877 14.3677 5.65044 14.3604 4.81142C14.3531 3.97239 14.0166 3.16979 13.4233 2.57648C12.83 1.98317 12.0274 1.64663 11.1884 1.63934C10.3493 1.63205 9.541 1.95459 8.93747 2.5375L7.73747 3.7375C7.66106 3.8113 7.60012 3.89957 7.55819 3.99718C7.51626 4.09478 7.49419 4.19975 7.49327 4.30598C7.49235 4.4122 7.51259 4.51755 7.55281 4.61586C7.59304 4.71418 7.65244 4.8035 7.72755 4.87862C7.80267 4.95373 7.89199 5.01313 7.99031 5.05336C8.08862 5.09358 8.19397 5.11382 8.30019 5.1129C8.40641 5.11198 8.51139 5.08991 8.60899 5.04798C8.7066 5.00605 8.79487 4.94511 8.86867 4.8687L10.0687 3.6687ZM6.06867 7.6687C6.36871 7.36875 6.77561 7.20024 7.19987 7.20024C7.62413 7.20024 8.03102 7.36875 8.33107 7.6687C8.40487 7.74511 8.49314 7.80605 8.59075 7.84798C8.68835 7.88991 8.79332 7.91198 8.89955 7.9129C9.00577 7.91382 9.11112 7.89358 9.20943 7.85336C9.30775 7.81313 9.39707 7.75373 9.47219 7.67862C9.5473 7.6035 9.6067 7.51418 9.64693 7.41586C9.68715 7.31755 9.70739 7.2122 9.70647 7.10598C9.70555 6.99975 9.68348 6.89478 9.64155 6.79718C9.59962 6.69957 9.53868 6.6113 9.46227 6.5375C8.86218 5.93759 8.0484 5.60058 7.19987 5.60058C6.35134 5.60058 5.53756 5.93759 4.93747 6.5375L2.53747 8.9375C2.23184 9.23269 1.98805 9.58579 1.82034 9.9762C1.65264 10.3666 1.56436 10.7865 1.56067 11.2114C1.55698 11.6363 1.63794 12.0577 1.79884 12.451C1.95974 12.8442 2.19735 13.2015 2.49781 13.502C2.79826 13.8024 3.15555 14.04 3.54882 14.2009C3.94208 14.3618 4.36346 14.4428 4.78835 14.4391C5.21325 14.4354 5.63315 14.3471 6.02356 14.1794C6.41398 14.0117 6.76708 13.7679 7.06227 13.4623L8.26227 12.2623C8.33868 12.1885 8.39962 12.1002 8.44155 12.0026C8.48348 11.905 8.50555 11.8 8.50647 11.6938C8.50739 11.5876 8.48715 11.4823 8.44693 11.3839C8.4067 11.2856 8.3473 11.1963 8.27219 11.1212C8.19707 11.0461 8.10775 10.9867 8.00943 10.9464C7.91112 10.9062 7.80577 10.886 7.69955 10.8869C7.59333 10.8878 7.48835 10.9099 7.39075 10.9518C7.29314 10.9937 7.20487 11.0547 7.13107 11.1311L5.93107 12.3311C5.78347 12.4839 5.60692 12.6058 5.41172 12.6897C5.21651 12.7735 5.00656 12.8177 4.79411 12.8195C4.58166 12.8213 4.37098 12.7809 4.17434 12.7004C3.97771 12.62 3.79907 12.5012 3.64884 12.3509C3.49861 12.2007 3.3798 12.0221 3.29935 11.8254C3.21891 11.6288 3.17842 11.4181 3.18027 11.2057C3.18211 10.9932 3.22625 10.7833 3.31011 10.5881C3.39396 10.3928 3.51585 10.2163 3.66867 10.0687L6.06867 7.6687Z"/>
</svg>
