<svg viewBox="0 0 20 20" fill="none" xmlns="http://www.w3.org/2000/svg">
<path fill-rule="evenodd" clip-rule="evenodd" d="M7.82861 10.006C9.35653 10.006 10.5994 8.76311 10.5994 7.23519C10.5994 5.70727 9.35653 4.46436 7.82861 4.46436C6.3007 4.46436 5.05778 5.70727 5.05778 7.23519C5.05778 8.76311 6.3007 10.006 7.82861 10.006ZM2.28695 14.1623C2.28695 12.3177 5.97611 11.3914 7.82861 11.3914C9.68111 11.3914 13.3703 12.3177 13.3703 14.1623V15.5477H2.28695V14.1623ZM7.82862 12.9748C6.41154 12.9748 4.80445 13.5052 4.13945 13.9644H11.5178C10.8528 13.5052 9.2457 12.9748 7.82862 12.9748ZM9.01611 7.23519C9.01611 6.57811 8.4857 6.04769 7.82861 6.04769C7.17153 6.04769 6.64111 6.57811 6.64111 7.23519C6.64111 7.89227 7.17153 8.42269 7.82861 8.42269C8.4857 8.42269 9.01611 7.89227 9.01611 7.23519ZM13.4019 11.4389C14.3203 12.1039 14.9536 12.9906 14.9536 14.1623V15.5477H18.1203V14.1623C18.1203 12.5631 15.3494 11.6527 13.4019 11.4389ZM15.3494 7.23519C15.3494 8.76311 14.1065 10.006 12.5786 10.006C12.1511 10.006 11.7553 9.90311 11.3911 9.72894C11.8899 9.02436 12.1828 8.16144 12.1828 7.23519C12.1828 6.30894 11.8899 5.44602 11.3911 4.74144C11.7553 4.56727 12.1511 4.46436 12.5786 4.46436C14.1065 4.46436 15.3494 5.70727 15.3494 7.23519Z"/>
</svg>
