<svg width="16" height="18" viewBox="0 0 16 18" fill="none" xmlns="http://www.w3.org/2000/svg">
<path d="M9.10615 16.4929L12.7597 12.8204C13.723 11.852 14.3791 10.6182 14.6448 9.27504C14.9106 7.93187 14.7742 6.53964 14.2528 5.27441C13.7314 4.00918 12.8485 2.92777 11.7156 2.16693C10.5828 1.40609 9.25101 1 7.88859 1C6.52617 1 5.19435 1.40609 4.06153 2.16693C2.92872 2.92777 2.04579 4.00918 1.5244 5.27441C1.00301 6.53964 0.866571 7.93187 1.13234 9.27504C1.39811 10.6182 2.05415 11.852 3.0175 12.8204L6.67189 16.4929C6.83167 16.6536 7.02141 16.7812 7.23025 16.8682C7.43909 16.9552 7.66295 17 7.88902 17C8.11509 17 8.33895 16.9552 8.54779 16.8682C8.75664 16.7812 8.94637 16.6536 9.10615 16.4929Z" stroke="#6B46C1" stroke-width="1.02164" stroke-linecap="round" stroke-linejoin="round"/>
<path d="M9.71502 9.76042C10.1995 9.27346 10.4716 8.61301 10.4716 7.92435C10.4716 7.23569 10.1995 6.57524 9.71502 6.08828C9.23057 5.60133 8.57352 5.32776 7.8884 5.32776C7.20329 5.32776 6.54623 5.60133 6.06179 6.08828C5.57734 6.57524 5.30518 7.23569 5.30518 7.92435C5.30518 8.61301 5.57734 9.27346 6.06179 9.76042C6.54623 10.2474 7.20329 10.5209 7.8884 10.5209C8.57352 10.5209 9.23057 10.2474 9.71502 9.76042Z" stroke="#6B46C1" stroke-width="1.02164" stroke-linecap="round" stroke-linejoin="round"/>
</svg>
