<svg width="18" height="16" viewBox="0 0 18 16" xmlns="http://www.w3.org/2000/svg">
  <path fill-rule="evenodd" clip-rule="evenodd" d="M4.2793 1.53601C4.50629 1.53601 4.72398 1.61692 4.88448 1.76095C5.04499 1.90498 5.13516 2.10032 5.13516 2.30401V3.07201H5.99101C6.218 3.07201 6.43569 3.15292 6.5962 3.29695C6.7567 3.44098 6.84687 3.63632 6.84687 3.84001C6.84687 4.0437 6.7567 4.23904 6.5962 4.38307C6.43569 4.5271 6.218 4.60801 5.99101 4.60801H5.13516V5.37601C5.13516 5.5797 5.04499 5.77504 4.88448 5.91907C4.72398 6.0631 4.50629 6.14401 4.2793 6.14401C4.05231 6.14401 3.83462 6.0631 3.67412 5.91907C3.51362 5.77504 3.42344 5.5797 3.42344 5.37601V4.60801H2.56759C2.3406 4.60801 2.12291 4.5271 1.96241 4.38307C1.8019 4.23904 1.71173 4.0437 1.71173 3.84001C1.71173 3.63632 1.8019 3.44098 1.96241 3.29695C2.12291 3.15292 2.3406 3.07201 2.56759 3.07201H3.42344V2.30401C3.42344 2.10032 3.51362 1.90498 3.67412 1.76095C3.83462 1.61692 4.05231 1.53601 4.2793 1.53601ZM4.2793 9.21601C4.50629 9.21601 4.72398 9.29692 4.88448 9.44095C5.04499 9.58498 5.13516 9.78032 5.13516 9.98401V10.752H5.99101C6.218 10.752 6.43569 10.8329 6.5962 10.977C6.7567 11.121 6.84687 11.3163 6.84687 11.52C6.84687 11.7237 6.7567 11.919 6.5962 12.0631C6.43569 12.2071 6.218 12.288 5.99101 12.288H5.13516V13.056C5.13516 13.2597 5.04499 13.455 4.88448 13.5991C4.72398 13.7431 4.50629 13.824 4.2793 13.824C4.05231 13.824 3.83462 13.7431 3.67412 13.5991C3.51362 13.455 3.42344 13.2597 3.42344 13.056V12.288H2.56759C2.3406 12.288 2.12291 12.2071 1.96241 12.0631C1.8019 11.919 1.71173 11.7237 1.71173 11.52C1.71173 11.3163 1.8019 11.121 1.96241 10.977C2.12291 10.8329 2.3406 10.752 2.56759 10.752H3.42344V9.98401C3.42344 9.78032 3.51362 9.58498 3.67412 9.44095C3.83462 9.29692 4.05231 9.21601 4.2793 9.21601ZM10.2703 1.53601C10.4592 1.53596 10.6428 1.59197 10.7925 1.69532C10.9422 1.79868 11.0496 1.94356 11.0979 2.1074L12.107 5.52961L14.9775 7.01492C15.1076 7.08233 15.2156 7.17928 15.2907 7.29603C15.3659 7.41277 15.4054 7.5452 15.4054 7.68001C15.4054 7.81482 15.3659 7.94725 15.2907 8.06399C15.2156 8.18074 15.1076 8.27769 14.9775 8.3451L12.107 9.83118L11.0971 13.2526C11.0486 13.4163 10.9412 13.561 10.7916 13.6643C10.642 13.7675 10.4586 13.8235 10.2699 13.8235C10.0811 13.8235 9.8977 13.7675 9.7481 13.6643C9.5985 13.561 9.49113 13.4163 9.44269 13.2526L8.43363 9.83041L5.56309 8.3451C5.43299 8.27769 5.32496 8.18074 5.24985 8.06399C5.17474 7.94725 5.1352 7.81482 5.1352 7.68001C5.1352 7.5452 5.17474 7.41277 5.24985 7.29603C5.32496 7.17928 5.43299 7.08233 5.56309 7.01492L8.43363 5.52884L9.44354 2.1074C9.49186 1.94369 9.59912 1.7989 9.74865 1.69556C9.89817 1.59222 10.0816 1.53613 10.2703 1.53601Z"/>
</svg>
