<svg width="14" height="18" viewBox="0 0 14 18" fill="none" xmlns="http://www.w3.org/2000/svg">
<path fill-rule="evenodd" clip-rule="evenodd" d="M7.9412 0.830339C8.13496 0.887937 8.30423 1.00246 8.4244 1.15726C8.54456 1.31205 8.60935 1.49904 8.60933 1.69104V6.20203H12.4273C12.6019 6.20196 12.7731 6.24715 12.9224 6.33269C13.0717 6.41823 13.1934 6.54084 13.2741 6.68718C13.3548 6.83352 13.3915 6.99798 13.3802 7.16266C13.3689 7.32734 13.31 7.48594 13.2099 7.62119L6.52856 16.6432C6.41228 16.8006 6.24587 16.9189 6.05355 16.9808C5.86123 17.0427 5.65303 17.045 5.45925 16.9873C5.26546 16.9297 5.0962 16.8151 4.97608 16.6602C4.85597 16.5053 4.79127 16.3182 4.7914 16.1262V11.6152H0.973463C0.798871 11.6153 0.627601 11.5701 0.478294 11.4846C0.328986 11.399 0.207361 11.2764 0.126654 11.1301C0.0459476 10.9837 0.00925132 10.8193 0.0205589 10.6546C0.0318666 10.4899 0.090745 10.3313 0.190787 10.1961L6.87217 1.17408C6.98863 1.0169 7.15507 0.898917 7.34732 0.837264C7.53956 0.775612 7.7476 0.773502 7.9412 0.831241V0.830339Z" fill="white"/>
</svg>
