<svg version="1.0" xmlns="http://www.w3.org/2000/svg" width="22" height="22" viewBox="0 0 160.000000 160.000000" preserveAspectRatio="xMidYMid meet">
  <g transform="translate(0.000000,160.000000) scale(0.100000,-0.100000)" fill="#4A5568" stroke="none">
    <path d="M988 1327 c-125 -35 -207 -146 -208 -279 0 -56 -1 -58 -27 -58 -51 0 -160 28 -236 60 -89 37 -192 107 -262 179 -27 28 -52 51 -56 51 -4 0 -15 -20 -24 -45 -13 -33 -16 -64 -13 -117 5 -80 24 -126 71 -175 35 -38 22 -44 -40 -18 -20 8 -38 14 -40 12 -2 -2 1 -28 7 -57 17 -92 72 -166 155 -208 l40 -21 -47 -1 c-51 0 -54 -4 -38 -44 24 -63 144 -156 202 -156 33 0 27 -19 -15 -43 -72 -42 -166 -69 -267 -76 l-95 -6 70 -37 c131 -68 199 -83 380 -83 183 0 248 15 386 86 247 128 428 428 429 707 0 40 5 49 59 102 33 32 65 68 71 81 11 19 10 21 -6 16 -11 -3 -43 -12 -73 -21 l-54 -15 35 37 c35 36 68 91 68 111 0 6 -21 0 -47 -13 -27 -13 -67 -30 -91 -37 -39 -11 -44 -11 -65 9 -59 56 -183 83 -269 59z"/>
  </g>
</svg>
